<svg width="18" height="18" viewBox="0 0 18 18" fill="none" xmlns="http://www.w3.org/2000/svg">
<path d="M4.06667 4.72603V2C4.06667 1.44771 4.51438 1 5.06667 1H12.8667C13.419 1 13.8667 1.44772 13.8667 2V4.72603M13.8667 4.72603H2C1.44771 4.72603 1 5.17374 1 5.72603V12.7123C1 13.2646 1.44772 13.7123 2 13.7123H4.06667M13.8667 4.72603H16C16.5523 4.72603 17 5.17374 17 5.72603V12.7123C17 13.2646 16.5523 13.7123 16 13.7123H13.8667M4.06667 13.7123V11.2055C4.06667 10.6532 4.51438 10.2055 5.06667 10.2055H12.8667C13.419 10.2055 13.8667 10.6532 13.8667 11.2055V13.6027V13.7123M4.06667 13.7123V16C4.06667 16.5523 4.51438 17 5.06667 17H12.8667C13.419 17 13.8667 16.5523 13.8667 16V13.7123" stroke="#9A9A9A" stroke-linecap="round"/>
<path d="M6.33337 12.4703H11.8" stroke="#9A9A9A" stroke-linecap="round"/>
<path d="M6.33337 14.8082H11.8" stroke="#9A9A9A" stroke-linecap="round"/>
<ellipse cx="13.9334" cy="7.6484" rx="0.666667" ry="0.730594" fill="#9A9A9A"/>
</svg>
