<svg width="18" height="18" viewBox="0 0 18 18" fill="none" xmlns="http://www.w3.org/2000/svg">
<path d="M1 3.60099H3.05682M17 3.60099H14.879M11.5763 3.60099V2C11.5763 1.44772 11.1286 1 10.5763 1H7.41063C6.85834 1 6.41063 1.44772 6.41063 2V3.60099M11.5763 3.60099H6.41063M11.5763 3.60099H14.879M6.41063 3.60099H3.05682M3.05682 3.60099L3.68003 16.05C3.70667 16.5822 4.14593 17 4.67878 17H13.3349C13.8702 17 14.3105 16.5785 14.334 16.0438L14.879 3.60099" stroke="#9A9A9A" stroke-linecap="round"/>
<path d="M6.4945 6.51721V14.0837" stroke="#9A9A9A" stroke-linecap="round"/>
<path d="M9.1775 6.51721V14.0837" stroke="#9A9A9A" stroke-linecap="round"/>
<path d="M11.6929 6.51721V14.0837" stroke="#9A9A9A" stroke-linecap="round"/>
</svg>
